<svg width="67" height="56" viewBox="0 0 67 56" fill="none" xmlns="http://www.w3.org/2000/svg">
<path fill-rule="evenodd" clip-rule="evenodd" d="M10.0705 12.1657C9.66387 12.9005 9.42453 13.9019 9.53893 14.3908C9.85406 15.7375 16.6454 22.1806 17.531 21.9734C19.1561 21.5931 18.4528 19.8127 15.5687 17.0058C13.9221 15.4036 12.6888 13.91 12.8273 13.6868C12.9657 13.463 22.5023 12.2672 34.0191 11.0289C45.5353 9.79073 55.1614 8.72719 55.4089 8.66545C55.6565 8.60432 55.9216 8.81887 55.9975 9.14318C56.1627 9.84907 35.3901 46.2358 34.5763 46.6653C33.6444 47.1581 29.9026 36.3517 29.9793 33.3893C30.0844 29.3387 32.6467 25.9962 38.5503 22.2113C42.7399 19.525 43.6123 18.7099 43.3761 17.7007C43.0136 16.1515 41.5645 16.7462 35.2842 21.0243C26.1579 27.2399 25.1178 31.7751 29.9446 44.2967C31.9562 49.5159 32.6321 50.2307 35.0253 49.6707C36.935 49.2238 37.0251 49.0819 51.189 24.2704C59.5773 9.57586 60.2745 7.61271 57.5808 6.26882C56.7515 5.85504 15.5746 9.75992 11.7736 10.6131C11.2438 10.732 10.4772 11.4309 10.0705 12.1657ZM13.5846 31.0004C10.8135 32.8009 9.65486 33.9063 9.81638 34.5965C10.216 36.3042 10.7844 36.1954 14.9575 33.6122C19.5716 30.7566 21.051 29.2965 20.1982 28.4399C19.3472 27.5855 18.096 28.0697 13.5846 31.0004ZM14.5433 38.4638C10.0767 41.4501 7.69044 43.4092 7.71696 44.0687C7.792 45.9599 9.45 45.3259 16.3517 40.7657C24.3069 35.5102 24.6504 35.2092 23.9169 34.1289C23.1123 32.9431 22.1026 33.4102 14.5433 38.4638Z" fill="#FFA500"/>
<path fill-rule="evenodd" clip-rule="evenodd" d="M10.0701 12.1659C9.66344 12.9007 9.4241 13.9021 9.5385 14.391C9.85363 15.7377 16.645 22.1808 17.5305 21.9736C19.1557 21.5933 18.4524 19.8129 15.5683 17.006C13.9217 15.4038 12.6884 13.9102 12.8269 13.687C12.9653 13.4632 22.5019 12.2674 34.0187 11.0291C45.5349 9.79093 55.1609 8.72739 55.4084 8.66565C55.6561 8.60452 55.9212 8.81907 55.9971 9.14338C56.1623 9.84928 35.3897 46.236 34.5759 46.6655C33.644 47.1583 29.9022 36.3519 29.9789 33.3895C30.084 29.3389 32.6462 25.9964 38.5499 22.2115C42.7395 19.5252 43.6118 18.7101 43.3757 17.701C43.0132 16.1517 41.5641 16.7464 35.2837 21.0245C26.1575 27.2401 25.1174 31.7753 29.9441 44.2969C31.9558 49.5161 32.6317 50.2309 35.0249 49.6709C36.9346 49.224 37.0247 49.0821 51.1886 24.2706C59.5769 9.57606 60.2741 7.61291 57.5804 6.26903C56.7511 5.85524 15.5741 9.76012 11.7732 10.6133C11.2434 10.7322 10.4767 11.4311 10.0701 12.1659Z" fill="#0336FF"/>
</svg>
